<?xml version="1.0" encoding="UTF-8"?>
<svg id="Layer_1" data-name="Layer 1" xmlns="http://www.w3.org/2000/svg" viewBox="0 0 64 64">
  <defs>
    <style>
      .cls-1 {
        fill: #fff;
      }

      .cls-2 {
        fill: #008cba;
      }
    </style>
  </defs>
  <rect class="cls-2" width="64" height="64"/>
  <g>
    <path class="cls-1" d="M18.39,45.79c-2.02,0-3.95-.27-5.81-.81-1.86-.54-3.35-1.24-4.48-2.11l1.98-4.39c1.06.77,2.33,1.4,3.82,1.89,1.49.49,2.99.74,4.5.74,1.15,0,2.08-.12,2.79-.36.71-.24,1.23-.56,1.57-.95.34-.4.5-.86.5-1.39,0-.67-.26-1.21-.79-1.6-.53-.4-1.23-.72-2.11-.97-.88-.25-1.83-.49-2.86-.72-1.03-.23-2.07-.5-3.11-.83-1.04-.32-2-.76-2.88-1.3-.88-.54-1.57-1.25-2.09-2.12-.52-.88-.77-1.97-.77-3.29,0-1.44.38-2.75,1.15-3.94.77-1.19,1.94-2.14,3.51-2.84,1.57-.71,3.55-1.06,5.92-1.06,1.58,0,3.15.19,4.7.58,1.55.38,2.9.94,4.05,1.66l-1.84,4.39c-1.13-.65-2.29-1.13-3.49-1.46-1.2-.32-2.35-.49-3.46-.49s-2.08.13-2.77.38c-.7.25-1.21.59-1.53,1.03-.32.43-.49.91-.49,1.44,0,.67.26,1.21.79,1.62.53.41,1.22.73,2.09.95.86.23,1.82.46,2.88.68,1.06.23,2.1.51,3.13.85,1.03.34,1.98.76,2.84,1.28.86.52,1.57,1.21,2.11,2.09s.81,1.96.81,3.26c0,1.42-.39,2.71-1.17,3.89-.78,1.18-1.96,2.12-3.55,2.84-1.58.72-3.56,1.08-5.94,1.08Z"/>
    <path class="cls-1" d="M40.6,45.36l-10.91-25.2h6.34l9.51,22.32h-3.71l9.65-22.32h5.79l-10.91,25.2h-5.76Z"/>
  </g>
</svg>